<svg xmlns="http://www.w3.org/2000/svg" xmlns:xlink="http://www.w3.org/1999/xlink" width="0" height="0" style="position:absolute">
	
		<symbol id="arrow-right" viewBox="0 0 30 30">
			<path d="M22.823 13.125L12.765 3.068 15.416.416 30 15 15.416 29.584l-2.651-2.651 10.058-10.058H0v-3.75h22.823z"></path>
		</symbol>
	
		<symbol id="clock" viewBox="0 0 15 16">
			<path d="M10.016 0H5.443v1.525h4.573V0zM6.967 9.91h1.525V5.335H6.967v4.573zm6.121-5.047l1.083-1.082a8.42 8.42 0 0 0-1.075-1.075l-1.082 1.082A6.831 6.831 0 0 0 7.73 2.28a6.861 6.861 0 1 0 6.86 6.86 6.864 6.864 0 0 0-1.502-4.276zm-5.358 9.62a5.332 5.332 0 0 1-5.336-5.336A5.332 5.332 0 0 1 7.73 3.811a5.332 5.332 0 0 1 5.335 5.336 5.332 5.332 0 0 1-5.335 5.336z" fill="#242424"></path>
		</symbol>
	
		<symbol id="close-red" viewBox="0 0 14 14">
			<path d="M14 1.41L12.59 0 7 5.59 1.41 0 0 1.41 5.59 7 0 12.59 1.41 14 7 8.41 12.59 14 14 12.59 8.41 7 14 1.41z" fill="#FF7C7C"></path>
		</symbol>
	
		<symbol id="eye" viewBox="0 0 24 24">
			<path d="M22.33 11.69C20.13 7.622 16.27 5.16 12 5.16c-4.27 0-8.136 2.462-10.317 6.53l-.183.307.17.313c2.2 4.068 6.06 6.53 10.33 6.53 4.27 0 8.136-2.43 10.33-6.53l.17-.313-.17-.307zM12 17.5c-3.676 0-7.052-2.05-9.011-5.504C4.948 8.542 8.324 6.492 12 6.492c3.676 0 7.013 2.057 9.005 5.505C19.013 15.45 15.67 17.5 12 17.5z" fill="#000"></path><path d="M12.19 7.537a4.48 4.48 0 1 0 .065 8.959 4.48 4.48 0 0 0-.066-8.96zm0 7.653a3.174 3.174 0 1 1 3.206-3.193 3.178 3.178 0 0 1-3.207 3.193z" fill="#000"></path><path fill-rule="evenodd" clip-rule="evenodd" d="M1.5 11.997l.183-.307C3.863 7.622 7.729 5.16 12 5.16c4.27 0 8.13 2.462 10.33 6.53l.17.307-.17.313c-2.194 4.1-6.06 6.53-10.33 6.53-4.27 0-8.13-2.462-10.33-6.53l-.17-.313zm-.006.408l-.224-.413.239-.4C3.72 7.467 7.649 4.96 12 4.96c4.352 0 8.274 2.51 10.506 6.634l.222.402-.221.409C20.28 16.563 16.35 19.04 12 19.04c-4.352 0-8.275-2.51-10.506-6.635zm1.725-.408C5.154 15.334 8.437 17.3 12 17.3c3.555 0 6.807-1.966 8.773-5.304C18.807 8.664 15.562 6.692 12 6.692c-3.563 0-6.846 1.967-8.78 5.305zm-.23 0C4.948 8.542 8.324 6.492 12 6.492c3.676 0 7.013 2.057 9.005 5.505C19.013 15.45 15.67 17.5 12 17.5c-3.676 0-7.052-2.05-9.011-5.504zm6.606-3.854a4.68 4.68 0 1 1 5.254 7.746 4.68 4.68 0 0 1-5.254-7.746zm.955 6.332a2.973 2.973 0 0 0 2.792.294 2.981 2.981 0 0 0 1.853-2.771 2.974 2.974 0 1 0-4.645 2.477zm4.845-2.478a3.174 3.174 0 1 0-1.978 2.957 3.18 3.18 0 0 0 1.979-2.957zM9.709 8.309a4.48 4.48 0 1 1 5.029 7.415 4.48 4.48 0 0 1-5.03-7.415z" fill="#000"></path>
		</symbol>
	
		<symbol id="eye-closed" viewBox="0 0 24 24">
			<path d="M9.342 18.782l-1.931-.518.787-2.939a10.99 10.99 0 0 1-3.237-1.872l-2.153 2.154-1.415-1.415 2.154-2.153a10.957 10.957 0 0 1-2.371-5.07l1.968-.359C3.903 10.812 7.579 14 12 14c4.42 0 8.097-3.188 8.856-7.39l1.968.358a10.957 10.957 0 0 1-2.37 5.071l2.153 2.153-1.415 1.415-2.153-2.154a10.989 10.989 0 0 1-3.237 1.872l.787 2.94-1.931.517-.788-2.94a11.07 11.07 0 0 1-3.74 0l-.788 2.94z" fill="#000"></path>
		</symbol>
	
		<symbol id="facebook" viewBox="0 0 48 48">
			<circle cx="24" cy="24" r="24" fill="#4E6297"></circle><path d="M34.8 16.582c0-1.797-1.586-3.383-3.382-3.383H17.782c-1.797 0-3.382 1.586-3.382 3.383v13.635c0 1.797 1.585 3.382 3.382 3.382h6.87v-7.716h-2.536v-3.382h2.537v-1.374c0-2.326 1.69-4.334 3.805-4.334h2.748v3.382h-2.748c-.317 0-.634.317-.634.952V22.5h3.382v3.382h-3.382V33.6h3.593c1.797 0 3.383-1.585 3.383-3.382V16.582z" fill="#fff"></path>
		</symbol>
	
		<symbol id="googleplus" viewBox="0 0 48 48">
			<circle cx="24" cy="24" r="24" fill="#C5331E"></circle><path d="M24.41 22.13v4.75h6.46c-.95 2.564-3.42 4.274-6.27 4.274a6.61 6.61 0 0 1-6.65-6.65 6.61 6.61 0 0 1 6.65-6.65c1.425 0 2.755.475 3.895 1.235l.38.285 2.85-3.705-.38-.285C29.35 13.96 27.07 13.2 24.6 13.2c-6.27 0-11.4 5.13-11.4 11.4 0 6.27 5.13 11.4 11.4 11.4C30.87 36 36 30.87 36 24.6v-2.375H24.41v-.095z" fill="#fff"></path>
		</symbol>
	
		<symbol id="instagram" viewBox="0 0 32 32">
			<path d="M16 18.8c-1.5 0-2.8-1.2-2.8-2.8 0-1.5 1.2-2.8 2.8-2.8 1.5 0 2.8 1.2 2.8 2.8 0 1.5-1.3 2.8-2.8 2.8z" fill="#fff"></path><path fill-rule="evenodd" clip-rule="evenodd" d="M19.4 9.2h-6.8c-.8.1-1.2.2-1.5.3-.4.1-.7.3-1 .6-.237.237-.35.475-.485.762-.036.075-.073.155-.115.238a5.48 5.48 0 0 1-.052.148A3.53 3.53 0 0 0 9.2 12.6v6.8c.1.8.2 1.2.3 1.5.1.4.3.7.6 1 .237.237.475.35.762.485.075.036.155.073.238.115.046.015.095.033.148.052a3.53 3.53 0 0 0 1.352.248h6.8c.8-.1 1.2-.2 1.5-.3.4-.1.7-.3 1-.6.237-.237.35-.475.485-.762.036-.075.073-.155.115-.238.015-.046.033-.095.052-.147A3.53 3.53 0 0 0 22.8 19.4v-6.8c-.1-.8-.2-1.2-.3-1.5-.1-.4-.3-.7-.6-1-.237-.237-.475-.35-.762-.485A11.461 11.461 0 0 1 20.9 9.5c-.046-.015-.095-.033-.147-.052A3.53 3.53 0 0 0 19.4 9.2zM16 11.7c-2.4 0-4.3 1.9-4.3 4.3s1.9 4.3 4.3 4.3 4.3-1.9 4.3-4.3-1.9-4.3-4.3-4.3zm5.4-.1a1 1 0 1 1-2 0 1 1 0 0 1 2 0z" fill="#fff"></path><path fill-rule="evenodd" clip-rule="evenodd" d="M0 16C0 7.163 7.163 0 16 0s16 7.163 16 16-7.163 16-16 16S0 24.837 0 16zm12.6-8.3h6.8c.9.1 1.5.2 2 .4.6.3 1 .5 1.5 1s.8 1 1 1.5c.2.5.4 1.1.4 2v6.8c-.1.9-.2 1.5-.4 2-.3.6-.5 1-1 1.5s-1 .8-1.5 1c-.5.2-1.1.4-2 .4h-6.8c-.9-.1-1.5-.2-2-.4-.6-.3-1-.5-1.5-1s-.8-1-1-1.5c-.2-.5-.4-1.1-.4-2v-6.8c.1-.9.2-1.5.4-2 .3-.6.5-1 1-1.5s1-.8 1.5-1c.5-.2 1.1-.4 2-.4z" fill="#fff"></path>
		</symbol>
	
		<symbol id="login" viewBox="0 0 24 24">
			<path d="M10 11V8l5 4-5 4v-3H1v-2h9zm-7.542 4h2.124A8.003 8.003 0 0 0 20 12 8 8 0 0 0 4.582 9H2.458C3.732 4.943 7.522 2 12 2c5.523 0 10 4.477 10 10s-4.477 10-10 10c-4.478 0-8.268-2.943-9.542-7z" fill="#000"></path>
		</symbol>
	
		<symbol id="menu-all" viewBox="0 0 24 24">
			<path d="M21.66 10.44l-.98 4.18c-.84 3.61-2.5 5.07-5.62 4.77-.5-.04-1.04-.13-1.62-.27l-1.68-.4c-4.17-.99-5.46-3.05-4.48-7.23l.98-4.19c.2-.85.44-1.59.74-2.2 1.17-2.42 3.16-3.07 6.5-2.28l1.67.39c4.19.98 5.47 3.05 4.49 7.23z"></path><path d="M15.06 19.39c-.62.42-1.4.77-2.35 1.08l-1.58.52c-3.97 1.28-6.06.21-7.35-3.76L2.5 13.28c-1.28-3.97-.22-6.07 3.75-7.35l1.58-.52c.41-.13.8-.24 1.17-.31-.3.61-.54 1.35-.74 2.2l-.98 4.19c-.98 4.18.31 6.24 4.48 7.23l1.68.4c.58.14 1.12.23 1.62.27zM12.64 8.53l4.85 1.23M11.66 12.4l2.9.74"></path>
		</symbol>
	
		<symbol id="menu-courses" viewBox="0 0 24 24">
			<path d="M10.05 2.53L4.03 6.46c-1.93 1.26-1.93 4.08 0 5.34l6.02 3.93c1.08.71 2.86.71 3.94 0l5.99-3.93c1.92-1.26 1.92-4.07 0-5.33l-5.99-3.93c-1.08-.72-2.86-.72-3.94-.01z"></path><path d="M5.63 13.08l-.01 4.69c0 1.27.98 2.63 2.18 3.03l3.19 1.06c.55.18 1.46.18 2.02 0l3.19-1.06c1.2-.4 2.18-1.76 2.18-3.03v-4.64M21.4 15V9"></path>
		</symbol>
	
		<symbol id="menu-faq" viewBox="0 0 24 24">
			<path d="M8.3 18.04v-1.16C6 15.49 4.11 12.78 4.11 9.9c0-4.95 4.55-8.83 9.69-7.71 2.26.5 4.24 2 5.27 4.07 2.09 4.2-.11 8.66-3.34 10.61v1.16c0 .29.11.96-.96.96H9.26c-1.1.01-.96-.42-.96-.95zM8.5 22c2.29-.65 4.71-.65 7 0"></path>
		</symbol>
	
		<symbol id="menu-speakers" viewBox="0 0 24 24">
			<path d="M12 19c3.31 0 6-2.69 6-6V8c0-3.31-2.69-6-6-6S6 4.69 6 8v5c0 3.31 2.69 6 6 6z"></path><path d="M3 11v2a9 9 0 0 0 18 0v-2M9.11 7.48a8 8 0 0 1 5.5 0M10.03 10.48c1.2-.33 2.47-.33 3.67 0"></path>
		</symbol>
	
		<symbol id="ring" viewBox="0 0 24 24">
			<path d="M12.02 2.91c-3.31 0-6 2.69-6 6v2.89c0 .61-.26 1.54-.57 2.06L4.3 15.77c-.71 1.18-.22 2.49 1.08 2.93 4.31 1.44 8.96 1.44 13.27 0 1.21-.4 1.74-1.83 1.08-2.93l-1.15-1.91c-.3-.52-.56-1.45-.56-2.06V8.91c0-3.3-2.7-6-6-6z" stroke="#fff" stroke-width="1.5" stroke-miterlimit="10" stroke-linecap="round"></path><path d="M13.87 3.2a6.754 6.754 0 0 0-3.7 0c.29-.74 1.01-1.26 1.85-1.26.84 0 1.56.52 1.85 1.26z" stroke="#fff" stroke-width="1.5" stroke-miterlimit="10" stroke-linecap="round" stroke-linejoin="round"></path><path d="M15.02 19.06c0 1.65-1.35 3-3 3-.82 0-1.58-.34-2.12-.88a3.01 3.01 0 0 1-.88-2.12" stroke="#fff" stroke-width="1.5" stroke-miterlimit="10"></path>
		</symbol>
	
		<symbol id="telegram" viewBox="0 0 32 32">
			<path fill-rule="evenodd" clip-rule="evenodd" d="M16 32C7.163 32 0 24.837 0 16S7.163 0 16 0s16 7.163 16 16-7.163 16-16 16zm.692-19.993c-1.433.596-4.297 1.83-8.592 3.701-.698.278-1.063.549-1.096.814-.056.449.505.625 1.27.866.104.032.212.066.322.102.752.245 1.764.53 2.29.542.477.01 1.01-.186 1.598-.59 4.013-2.709 6.084-4.078 6.214-4.108.092-.02.22-.047.305.03.087.076.078.221.069.26-.056.237-2.26 2.287-3.4 3.347-.356.33-.608.565-.66.619-.115.12-.233.233-.346.342-.699.674-1.223 1.179.029 2.004.602.396 1.083.724 1.563 1.051.525.358 1.048.714 1.725 1.158.172.113.337.23.497.344.61.436 1.16.826 1.837.764.393-.036.8-.406 1.007-1.51.488-2.61 1.447-8.263 1.669-10.592a2.602 2.602 0 0 0-.025-.58.621.621 0 0 0-.21-.4c-.176-.143-.448-.173-.57-.17-.554.009-1.405.305-5.496 2.006z" fill="#fff"></path>
		</symbol>
	
		<symbol id="timer" viewBox="0 0 36 36">
			<path d="M31.125 19.875C31.125 27.12 25.245 33 18 33S4.875 27.12 4.875 19.875 10.755 6.75 18 6.75s13.125 5.88 13.125 13.125zM18 12v7.5" stroke="#fff" stroke-width="1.5" stroke-linecap="round" stroke-linejoin="round"></path><path d="M13.5 3h9" stroke="#fff" stroke-width="1.5" stroke-miterlimit="10" stroke-linecap="round" stroke-linejoin="round"></path>
		</symbol>
	
		<symbol id="toggler" viewBox="0 0 11 8">
			<path d="M1.292.62L0 1.954 5.5 7.62 11 1.953 9.707.62 5.5 4.947 1.293.621z" fill="#1D1D1D"></path>
		</symbol>
	
		<symbol id="toggler-white" viewBox="0 0 11 8">
			<path d="M1.292.62L0 1.954 5.5 7.62 11 1.953 9.707.62 5.5 4.947 1.293.621z" fill="#FFF"></path>
		</symbol>
	
		<symbol id="tooggler-white" viewBox="0 0 20 20">
			<path d="M16.6 7.458l-5.433 5.434a1.655 1.655 0 0 1-2.334 0L3.4 7.458" stroke="#fff" stroke-width="1.5" stroke-miterlimit="10" stroke-linecap="round" stroke-linejoin="round"></path>
		</symbol>
	
		<symbol id="twitter" viewBox="0 0 48 48">
			<circle cx="24" cy="24" r="24" fill="#55ACE3"></circle><path d="M36.72 17.88c-.84.36-1.8.6-2.76.72.96-.6 1.8-1.56 2.16-2.64-.96.6-1.92.96-3.12 1.2-.84-.96-2.16-1.56-3.48-1.56-2.64 0-4.8 2.16-4.8 4.8 0 .36 0 .72.12 1.08-3.96-.24-7.56-2.16-9.96-5.04-.36.72-.6 1.56-.6 2.4 0 1.68.84 3.12 2.16 3.96-.84 0-1.56-.24-2.16-.6 0 2.28 1.68 4.32 3.84 4.68-.36.12-.84.12-1.32.12-.36 0-.6 0-.96-.12.6 1.92 2.4 3.36 4.56 3.36-1.68 1.32-3.72 2.04-6 2.04-.36 0-.72 0-1.2-.12 2.16 1.32 4.68 2.16 7.44 2.16 8.88 0 13.68-7.32 13.68-13.68v-.6c.96-.36 1.8-1.2 2.4-2.16z" fill="#fff"></path>
		</symbol>
	
		<symbol id="vk" viewBox="0 0 48 48">
			<circle cx="24" cy="24" r="24" fill="#7294C7"></circle><path d="M35.767 30.14c0-.1-.1-.1-.1-.2-.398-.797-1.294-1.794-2.49-2.89-.598-.498-.896-.896-1.096-1.095-.299-.399-.299-.698-.199-1.096.1-.299.498-.797 1.195-1.694.399-.498.598-.797.897-1.096 1.495-1.992 2.192-3.287 1.993-3.885l-.1-.1c-.1-.1-.2-.2-.398-.2-.2-.099-.499-.099-.797 0h-4.484l-.1.1c-.099.1-.099.1-.099.2-.399 1.096-.897 1.992-1.395 2.989-.299.498-.598.996-.896 1.394-.3.399-.498.698-.698.897-.199.2-.398.299-.498.498-.1.1-.299.2-.299.1-.1 0-.199 0-.199-.1l-.299-.299c-.1-.1-.1-.299-.2-.498v-.498-.598-.598-1.095-.897-.697-.598c0-.1-.099-.3-.099-.399l-.299-.299c-.1-.1-.299-.1-.398-.199-.498-.1-1.096-.2-1.793-.2-1.595 0-2.69.1-3.089.3-.2.1-.398.199-.498.398-.2.2-.2.3-.1.3.498.099.897.298 1.096.597l.1.2c.1.099.1.298.2.597.099.299.099.598.099.996v1.594c0 .498-.1.797-.1 1.096 0 .299-.1.498-.2.598-.099.2-.099.299-.198.299 0 0 0 .1-.1.1s-.2.1-.399.1c-.1 0-.298-.1-.398-.2a1.2 1.2 0 0 1-.498-.498c-.2-.2-.399-.498-.598-.897-.2-.399-.498-.797-.697-1.395l-.2-.398c-.1-.2-.298-.598-.498-1.096-.199-.498-.398-.897-.598-1.395-.1-.2-.199-.299-.298-.398h-.1s-.1-.1-.2-.1c-.099 0-.198-.1-.298-.1h-3.587c-.398 0-.598.1-.697.2l-.1.1v.198c0 .1 0 .2.1.399.498 1.196 1.096 2.391 1.694 3.587.597 1.095 1.195 2.092 1.594 2.79.498.697.896 1.394 1.394 1.992.498.597.797.996.897 1.195l.399.399.298.299c.2.199.498.498.897.797.398.299.897.597 1.395.896.498.3 1.096.498 1.694.698.697.199 1.295.299 1.892.199h1.495c.299 0 .498-.1.697-.299l.1-.1c0-.1.1-.1.1-.199v-.398c0-.399 0-.698.1-.997.099-.299.099-.498.198-.697.1-.2.2-.299.3-.399l.198-.199h.1c.2-.1.498 0 .698.2.298.199.597.498.797.796.199.3.498.598.896.997.399.398.698.697.897.797l.299.199c.199.1.398.2.697.299.299.1.498.1.697.1l3.388-.1c.299 0 .598-.1.797-.2.2-.099.299-.199.299-.398v-.398c-.2-.2-.2-.3-.2-.399z" fill="#fff"></path>
		</symbol>
	
</svg>
