<svg width="150" height="24" viewBox="0 0 150 24" fill="none" xmlns="http://www.w3.org/2000/svg">
<path d="M0 3.51616V1.06201H17.5102V3.51616H10.1902V22.9625H7.30299V3.51616H0Z" fill="black"/>
<path d="M19.3699 7.70287C19.7832 6.36499 20.4555 5.12142 21.3485 4.04289C22.2413 2.9639 23.3603 2.09422 24.6263 1.49533C26.0568 0.834128 27.6195 0.508807 29.195 0.544246C30.7705 0.507902 32.3334 0.833266 33.7636 1.49533C35.0306 2.09645 36.1519 2.96569 37.0499 4.04289C37.9488 5.12287 38.632 6.36534 39.0625 7.70287C39.5031 9.09815 39.7237 10.5535 39.7164 12.0167C39.7244 13.4772 39.5038 14.9299 39.0625 16.3221C38.6442 17.6604 37.9725 18.9059 37.0839 19.9906C36.1868 21.0688 35.0653 21.9382 33.7975 22.5381C32.353 23.1915 30.7799 23.5107 29.195 23.4722C27.6203 23.4995 26.0594 23.1745 24.6263 22.5211C23.3596 21.9235 22.2404 21.0536 21.3485 19.9736C20.4536 18.8932 19.7811 17.6464 19.3699 16.3051C18.4867 13.4999 18.4867 10.4911 19.3699 7.68589V7.70287ZM22.0788 15.2776C22.3431 16.3217 22.8011 17.3068 23.429 18.1818C24.0459 19.0429 24.8539 19.7492 25.7897 20.2453C26.8378 20.7893 28.0059 21.0609 29.1865 21.0351C30.367 21.0605 31.535 20.789 32.5832 20.2453C33.519 19.7492 34.3271 19.0429 34.9439 18.1818C35.5653 17.303 36.0227 16.3191 36.2941 15.2776C36.8616 13.1378 36.8616 10.8871 36.2941 8.74737C36.0209 7.70915 35.5636 6.72838 34.9439 5.85165C34.3276 4.98794 33.5196 4.27873 32.5832 3.77964C31.5329 3.24269 30.3659 2.97428 29.1865 2.99839C28.007 2.97392 26.8399 3.24235 25.7897 3.77964C24.8534 4.27873 24.0453 4.98794 23.429 5.85165C22.8027 6.72451 22.3448 7.70655 22.0788 8.74737C21.5014 10.8858 21.5014 13.1391 22.0788 15.2776V15.2776Z" fill="black"/>
<path d="M61.447 1.06201C63.6549 1.06201 65.3249 1.62813 66.4572 2.76038C67.0477 3.39836 67.5027 4.14947 67.7946 4.9683C68.0865 5.78713 68.2093 6.65666 68.1556 7.52431C68.2084 8.39574 68.0852 9.26889 67.7934 10.0917C67.5016 10.9145 67.0472 11.6702 66.4572 12.3137C65.3249 13.446 63.6549 14.0121 61.447 14.0121H46.1617V22.9625H43.2405V1.06201H61.447ZM60.4619 11.5834C61.7582 11.7096 63.0547 11.3461 64.0965 10.5644C64.4952 10.1769 64.805 9.70735 65.0044 9.18831C65.2038 8.66926 65.2881 8.11309 65.2513 7.55828C65.2873 7.00608 65.2026 6.45267 65.0032 5.93649C64.8037 5.42031 64.4943 4.95373 64.0965 4.56914C63.0523 3.78994 61.7609 3.41582 60.4619 3.51616H46.1617V11.5834H60.4619Z" fill="black"/>
<path d="M82.6426 3.99183C81.5645 3.25772 80.2769 2.8941 78.9741 2.95583C78.3808 2.95544 77.789 3.01519 77.2078 3.13415C76.6609 3.24182 76.1376 3.44598 75.6623 3.73708C75.2154 4.01555 74.8448 4.40074 74.5838 4.858C74.2943 5.39736 74.1536 6.00408 74.1762 6.61581C74.1638 7.19821 74.3802 7.76227 74.7791 8.1868C75.2197 8.63197 75.7533 8.97416 76.3416 9.18884C77.0539 9.46963 77.79 9.68563 78.541 9.83422C79.3902 10.0041 80.2394 10.1909 81.0886 10.3862C81.9377 10.5815 82.7869 10.8278 83.6361 11.091C84.422 11.3454 85.166 11.7145 85.844 12.1865C86.4861 12.6452 87.0195 13.2395 87.4065 13.9273C87.8208 14.744 88.0196 15.6531 87.9839 16.5683C88.0128 17.5976 87.7477 18.6139 87.2197 19.4979C86.721 20.2951 86.0508 20.971 85.2581 21.4765C84.4099 22.0185 83.4727 22.4065 82.4897 22.6229C81.5211 22.8507 80.5296 22.9675 79.5346 22.9711C78.3872 22.9754 77.2445 22.824 76.1378 22.521C75.1198 22.2483 74.163 21.7843 73.3185 21.1539C72.5011 20.5402 71.843 19.7394 71.3994 18.8186C70.9048 17.7561 70.6636 16.5934 70.6945 15.4219H73.395C73.3553 16.2288 73.5219 17.0325 73.879 17.7571C74.2091 18.39 74.6797 18.939 75.2547 19.3621C75.8614 19.8016 76.5478 20.1189 77.2757 20.2962C78.0412 20.494 78.8288 20.5939 79.6195 20.5934C80.2576 20.5911 80.8942 20.5314 81.5216 20.4151C82.1388 20.3107 82.7334 20.101 83.2795 19.7952C83.7929 19.5163 84.2258 19.1098 84.5363 18.6148C84.8799 18.0354 85.048 17.3687 85.0203 16.6956C85.0502 16.0443 84.8419 15.4043 84.4343 14.8954C84.0036 14.4078 83.4699 14.022 82.8718 13.7659C82.1646 13.4567 81.4277 13.2206 80.6725 13.0611L78.1249 12.5092C77.2757 12.3223 76.4265 12.1015 75.5774 11.8468C74.8006 11.6188 74.058 11.2875 73.3695 10.8617C72.7313 10.4587 72.1962 9.91197 71.807 9.26527C71.4302 8.51109 71.2658 7.6686 71.3314 6.82811C71.303 5.85043 71.5283 4.88207 71.9853 4.01731C72.4193 3.24108 73.0267 2.57557 73.7601 2.07267C74.5178 1.55105 75.3594 1.16329 76.2482 0.926274C77.1816 0.675597 78.1435 0.547146 79.11 0.544141C80.1446 0.538152 81.1754 0.669507 82.1755 0.934766C83.0732 1.17616 83.9134 1.59482 84.6466 2.16608C85.3697 2.72906 85.9512 3.45311 86.345 4.28055C86.7789 5.23915 87.0102 6.27701 87.0244 7.32913H84.307C84.2858 6.68589 84.1262 6.05478 83.839 5.47885C83.5517 4.90291 83.1437 4.39571 82.6426 3.99183V3.99183Z" fill="black"/>
<path d="M94.2 1.06201V11.7448L105.061 1.06201H108.755L99.7197 9.70671L109.112 22.4869H105.511L97.7751 11.6513L94.2 14.9802V22.4869H91.3552V1.06201H94.2Z" fill="black"/>
<path d="M114.334 1.06201V22.4869H111.481V1.06201H114.334Z" fill="black"/>
<path d="M121.977 1.06201V20.0753H133.322V22.4785H119.132V1.06201H121.977Z" fill="black"/>
<path d="M138.663 1.06201V20.0753H150V22.4785H135.81V1.06201H138.663Z" fill="black"/>
<path d="M148.922 7.33754C148.58 7.6798 148.174 7.95134 147.728 8.13661C147.281 8.32188 146.802 8.41724 146.319 8.41724C145.835 8.41724 145.357 8.32188 144.91 8.13661C144.463 7.95134 144.058 7.6798 143.716 7.33754C143.373 6.99672 143.104 6.58998 142.923 6.1419C142.742 5.69382 142.653 5.2137 142.663 4.73054C142.661 4.25497 142.755 3.78389 142.941 3.34594C143.126 2.90799 143.398 2.51232 143.742 2.18299C144.07 1.82906 144.468 1.54681 144.911 1.35392C145.354 1.16104 145.832 1.06168 146.315 1.06206C146.8 1.05358 147.282 1.14493 147.73 1.33046C148.179 1.51598 148.584 1.79171 148.922 2.14053C149.268 2.47601 149.543 2.87879 149.728 3.32417C149.914 3.76955 150.006 4.24813 150 4.73054C150.005 5.21531 149.912 5.6961 149.727 6.14407C149.541 6.59205 149.268 6.99798 148.922 7.33754V7.33754ZM144.081 2.4887C143.782 2.77915 143.545 3.12799 143.386 3.51361C143.227 3.89922 143.148 4.31342 143.156 4.73054C143.148 5.14821 143.225 5.56306 143.383 5.9499C143.541 6.33674 143.775 6.6875 144.073 6.98088C144.366 7.27666 144.716 7.51141 145.1 7.67161C145.485 7.8318 145.898 7.91427 146.315 7.91427C146.731 7.91427 147.144 7.8318 147.529 7.67161C147.914 7.51141 148.263 7.27666 148.556 6.98088C148.85 6.68707 149.081 6.33705 149.235 5.95181C149.39 5.56658 149.465 5.15407 149.457 4.73903C149.463 4.32272 149.386 3.90934 149.228 3.52397C149.07 3.1386 148.836 2.78928 148.539 2.49719C148.247 2.20167 147.898 1.96709 147.514 1.80701C147.13 1.64693 146.718 1.56451 146.302 1.56451C145.886 1.56451 145.474 1.64693 145.09 1.80701C144.706 1.96709 144.357 2.20167 144.064 2.49719L144.081 2.4887ZM146.247 2.6925C146.62 2.6756 146.994 2.72446 147.351 2.83686C147.55 2.91941 147.718 3.06372 147.83 3.24864C147.941 3.43355 147.991 3.64934 147.97 3.86437C147.985 4.02052 147.957 4.17777 147.888 4.31867C147.819 4.45957 147.712 4.57862 147.58 4.66261C147.4 4.76826 147.201 4.83482 146.994 4.85792C147.132 4.87078 147.265 4.91306 147.385 4.98192C147.506 5.05077 147.609 5.14459 147.69 5.25704C147.825 5.43642 147.902 5.65267 147.911 5.87694V6.17416C147.911 6.26757 147.911 6.36947 147.911 6.47137C147.9 6.54173 147.9 6.61331 147.911 6.68367V6.73462H147.24V6.60724V6.20812C147.27 6.03837 147.255 5.86377 147.197 5.70149C147.139 5.5392 147.04 5.39482 146.909 5.28251C146.66 5.17778 146.389 5.13411 146.119 5.15514H145.559V6.74311H144.846V2.70099L146.247 2.6925ZM147.011 3.32939C146.743 3.21454 146.452 3.16506 146.162 3.18503H145.55V4.65412H146.196C146.426 4.66293 146.656 4.63132 146.875 4.56071C147.005 4.5175 147.116 4.43214 147.191 4.31824C147.267 4.20435 147.302 4.06848 147.291 3.93231C147.305 3.81692 147.286 3.70001 147.236 3.5949C147.187 3.4898 147.109 3.40074 147.011 3.33788V3.32939Z" fill="black"/>
</svg>
