<svg width="15" height="16" viewBox="0 0 15 16" fill="none" xmlns="http://www.w3.org/2000/svg">
<path d="M10.0164 0H5.44275V1.52454H10.0164V0ZM6.96728 9.90948H8.49182V5.33587H6.96728V9.90948ZM13.0883 4.86327L14.1707 3.78085C13.8429 3.39209 13.4847 3.0262 13.0959 2.70605L12.0135 3.78847C10.7995 2.81149 9.28788 2.27894 7.72955 2.27918C3.94108 2.27918 0.869141 5.35112 0.869141 9.13959C0.869141 12.9281 3.93346 16 7.72955 16C11.5256 16 14.59 12.9281 14.59 9.13959C14.59 7.53121 14.0259 6.04478 13.0883 4.86327ZM7.72955 14.4831C4.77957 14.4831 2.39368 12.0972 2.39368 9.14721C2.39368 6.19724 4.77957 3.81134 7.72955 3.81134C10.6795 3.81134 13.0654 6.19724 13.0654 9.14721C13.0654 12.0972 10.6795 14.4831 7.72955 14.4831Z" fill="#242424"/>
</svg>