<svg width="24" height="24" viewBox="0 0 24 24" fill="none" xmlns="http://www.w3.org/2000/svg">
<path d="M22.3302 11.6898C20.1297 7.62171 16.2705 5.15996 12 5.15996C7.72947 5.15996 3.8638 7.62171 1.68283 11.6898L1.49999 11.9967L1.66977 12.3101C3.87033 16.3782 7.72947 18.84 12 18.84C16.2705 18.84 20.1362 16.4109 22.3302 12.3101L22.5 11.9967L22.3302 11.6898ZM12 17.5014C8.32368 17.5014 4.94775 15.451 2.9888 11.9967C4.94775 8.54242 8.32368 6.49205 12 6.49205C15.6763 6.49205 19.0131 8.54895 21.0047 11.9967C19.0131 15.451 15.6698 17.5014 12 17.5014Z" fill="black"/>
<path d="M12.1894 7.5368C11.304 7.54326 10.4404 7.81195 9.70763 8.30894C8.97488 8.80593 8.40584 9.50892 8.07239 10.3291C7.73894 11.1493 7.65603 12.0499 7.83413 12.9172C8.01224 13.7845 8.44337 14.5796 9.07307 15.202C9.70278 15.8244 10.5028 16.2463 11.3721 16.4143C12.2414 16.5823 13.141 16.4889 13.9573 16.1459C14.7735 15.8029 15.4699 15.2257 15.9583 14.4872C16.4467 13.7487 16.7053 12.8821 16.7015 11.9967C16.6989 11.4073 16.5801 10.8243 16.3518 10.2809C16.1235 9.73756 15.7902 9.24461 15.371 8.8303C14.9519 8.41599 14.4551 8.08846 13.9091 7.8665C13.3631 7.64454 12.7787 7.53249 12.1894 7.5368ZM12.1894 15.1898C11.564 15.1833 10.9544 14.9922 10.4373 14.6405C9.92013 14.2888 9.51845 13.7921 9.28268 13.2128C9.04692 12.6335 8.98757 11.9974 9.1121 11.3845C9.23664 10.7716 9.5395 10.2092 9.98264 9.76786C10.4258 9.32652 10.9895 9.02596 11.6029 8.90393C12.2163 8.7819 12.8521 8.84384 13.4304 9.08197C14.0087 9.3201 14.5038 9.7238 14.8534 10.2424C15.203 10.7609 15.3916 11.3713 15.3955 11.9967C15.3973 12.4176 15.3154 12.8347 15.1547 13.2237C14.9941 13.6128 14.7578 13.966 14.4595 14.2631C14.1613 14.5601 13.8071 14.7949 13.4174 14.954C13.0277 15.1131 12.6103 15.1932 12.1894 15.1898Z" fill="black"/>
<path fill-rule="evenodd" clip-rule="evenodd" d="M1.49999 11.9967L1.68283 11.6898C3.8638 7.62171 7.72947 5.15996 12 5.15996C16.2705 5.15996 20.1297 7.62171 22.3302 11.6898L22.5 11.9967L22.3302 12.3101C20.1362 16.4109 16.2705 18.84 12 18.84C7.72947 18.84 3.87033 16.3782 1.66977 12.3101L1.49999 11.9967ZM1.49385 12.4053L1.26999 11.992L1.5087 11.5913C3.72104 7.46782 7.64935 4.95996 12 4.95996C16.352 4.95996 20.2743 7.46928 22.5057 11.5939L22.728 11.9957L22.5066 12.4045C20.2811 16.5634 16.3511 19.04 12 19.04C7.64777 19.04 3.72523 16.5303 1.49385 12.4053ZM3.21934 11.9967C5.15375 15.334 8.43679 17.3014 12 17.3014C15.5553 17.3014 18.8069 15.3353 20.7731 11.9968C18.8069 8.66423 15.5615 6.69205 12 6.69205C8.43679 6.69205 5.15375 8.65939 3.21934 11.9967ZM2.9888 11.9967C4.94775 8.54242 8.32368 6.49205 12 6.49205C15.6763 6.49205 19.0131 8.54895 21.0047 11.9967C19.0131 15.451 15.6698 17.5014 12 17.5014C8.32368 17.5014 4.94775 15.451 2.9888 11.9967ZM9.59537 8.14342C10.3608 7.62424 11.263 7.34355 12.1879 7.3368C12.8036 7.33231 13.4141 7.44935 13.9844 7.68123C14.5548 7.9131 15.0737 8.25525 15.5116 8.68805C15.9495 9.12086 16.2977 9.63583 16.5362 10.2034C16.7747 10.771 16.8988 11.3801 16.9015 11.9958C16.9055 12.9207 16.6353 13.8261 16.1251 14.5976C15.6149 15.369 14.8875 15.972 14.0348 16.3303C13.1821 16.6886 12.2423 16.7861 11.3342 16.6106C10.426 16.4351 9.59029 15.9945 8.93248 15.3443C8.27466 14.6941 7.82428 13.8635 7.63822 12.9575C7.45217 12.0515 7.53878 11.1106 7.88712 10.2538C8.23546 9.39697 8.8299 8.6626 9.59537 8.14342ZM10.5498 14.4751C11.0343 14.8047 11.6053 14.9837 12.1912 14.9898C12.5856 14.993 12.9767 14.9179 13.3418 14.7689C13.707 14.6198 14.0389 14.3997 14.3184 14.1214C14.5979 13.843 14.8193 13.5119 14.9699 13.1474C15.1204 12.7829 15.1971 12.3922 15.1955 11.9978C15.1918 11.4119 15.0151 10.84 14.6876 10.3542C14.36 9.86829 13.8961 9.49003 13.3542 9.2669C12.8124 9.04378 12.2166 8.98574 11.6419 9.10008C11.0671 9.21442 10.539 9.49604 10.1238 9.90957C9.70856 10.3231 9.42479 10.8501 9.3081 11.4244C9.19142 11.9986 9.24702 12.5946 9.46793 13.1374C9.68884 13.6801 10.0652 14.1456 10.5498 14.4751ZM15.3955 11.9967C15.3916 11.3713 15.203 10.7609 14.8534 10.2424C14.5038 9.7238 14.0087 9.3201 13.4304 9.08197C12.8521 8.84384 12.2163 8.7819 11.6029 8.90393C10.9895 9.02596 10.4258 9.32652 9.98264 9.76786C9.5395 10.2092 9.23664 10.7716 9.1121 11.3845C8.98757 11.9974 9.04692 12.6335 9.28268 13.2128C9.51845 13.7921 9.92013 14.2888 10.4373 14.6405C10.9544 14.9922 11.564 15.1833 12.1894 15.1898C12.6103 15.1932 13.0277 15.1131 13.4174 14.954C13.8071 14.7949 14.1613 14.5601 14.4595 14.2631C14.7578 13.966 14.9941 13.6128 15.1547 13.2237C15.3154 12.8347 15.3973 12.4176 15.3955 11.9967ZM9.70763 8.30894C10.4404 7.81195 11.304 7.54326 12.1894 7.5368C12.7787 7.53249 13.3631 7.64454 13.9091 7.8665C14.4551 8.08846 14.9519 8.41599 15.371 8.8303C15.7902 9.24461 16.1235 9.73756 16.3518 10.2809C16.5801 10.8243 16.6989 11.4073 16.7015 11.9967C16.7053 12.8821 16.4467 13.7487 15.9583 14.4872C15.4699 15.2257 14.7735 15.8029 13.9573 16.1459C13.141 16.4889 12.2414 16.5823 11.3721 16.4143C10.5028 16.2463 9.70278 15.8244 9.07307 15.202C8.44337 14.5796 8.01224 13.7845 7.83413 12.9172C7.65603 12.0499 7.73894 11.1493 8.07239 10.3291C8.40584 9.50892 8.97488 8.80593 9.70763 8.30894Z" fill="black"/>
</svg>