<svg width="48" height="48" viewBox="0 0 48 48" fill="none" xmlns="http://www.w3.org/2000/svg">
<circle cx="24" cy="24" r="24" fill="#55ACE3"/>
<path d="M36.7202 17.8796C35.8802 18.2396 34.9202 18.4796 33.9602 18.5996C34.9202 17.9996 35.7602 17.0396 36.1202 15.9596C35.1602 16.5596 34.2002 16.9196 33.0002 17.1596C32.1602 16.1996 30.8402 15.5996 29.5202 15.5996C26.8802 15.5996 24.7202 17.7596 24.7202 20.3996C24.7202 20.7596 24.7202 21.1196 24.8402 21.4796C20.8802 21.2396 17.2802 19.3196 14.8802 16.4396C14.5202 17.1596 14.2802 17.9996 14.2802 18.8396C14.2802 20.5196 15.1202 21.9596 16.4402 22.7996C15.6002 22.7996 14.8802 22.5596 14.2802 22.1996C14.2802 24.4796 15.9602 26.5196 18.1202 26.8796C17.7602 26.9996 17.2802 26.9996 16.8002 26.9996C16.4402 26.9996 16.2002 26.9996 15.8402 26.8796C16.4402 28.7996 18.2402 30.2396 20.4002 30.2396C18.7202 31.5596 16.6802 32.2796 14.4002 32.2796C14.0402 32.2796 13.6802 32.2796 13.2002 32.1596C15.3602 33.4796 17.8802 34.3196 20.6402 34.3196C29.5202 34.3196 34.3202 26.9996 34.3202 20.6396V20.0396C35.2802 19.6796 36.1202 18.8396 36.7202 17.8796Z" fill="white"/>
</svg>