<svg width="191" height="190" viewBox="0 0 191 190" fill="none" xmlns="http://www.w3.org/2000/svg"><path d="M151.575 189.979c0 .02 0 .02 0 0l6.099.02v-.02c0-18.361 14.935-33.273 33.295-33.273V150.6c-21.724 0-39.394 17.671-39.394 39.379z" fill="url(#a)"/><path d="M32.177 189.98c0-87.544 71.23-158.776 158.793-158.776v-6.107c-90.927 0-164.892 73.97-164.892 164.883v.02l6.1-.02c0 .02 0 .02 0 0z" fill="url(#b)"/><path d="M7.07 189.979c0-101.4 82.496-183.893 183.9-183.893V0C86.202 0 .97 85.231.97 189.979V190l6.1-.021c0 .021 0 .021 0 0z" fill="url(#c)"/><path d="M76.272 189.979c0 .02 0 .02 0 0l6.1.02v-.02c0-59.871 48.716-108.583 108.597-108.583V75.29c-63.245.02-114.697 51.451-114.697 114.69z" fill="url(#d)"/><path d="M51.165 189.98c0 .02 0 .02 0 0l6.1.02v-.02c0-73.708 59.982-133.68 133.684-133.68v-6.107c-77.066 0-139.784 62.711-139.784 139.787z" fill="url(#e)"/><path d="M101.38 189.979c0 .021 0 .021 0 0l6.1.021v-.021c0-46.034 37.448-83.486 83.489-83.486v-6.107c-49.404.021-89.589 40.212-89.589 89.593z" fill="url(#f)"/><path d="M126.467 189.979c0 .021 0 .021 0 0l6.1.021v-.021c0-32.197 26.182-58.389 58.382-58.389v-6.107c-35.544.02-64.482 28.951-64.482 64.496z" fill="url(#g)"/><defs><linearGradient id="a" x1="233.5" y1="-56.5" x2="11.5" y2="222.5" gradientUnits="userSpaceOnUse"><stop offset=".1" stop-color="#fff" stop-opacity="0"/><stop offset=".458" stop-color="#fff" stop-opacity=".31"/><stop offset="1" stop-color="#fff" stop-opacity="0"/></linearGradient><linearGradient id="b" x1="233.5" y1="-56.5" x2="11.5" y2="222.5" gradientUnits="userSpaceOnUse"><stop offset=".1" stop-color="#fff" stop-opacity="0"/><stop offset=".458" stop-color="#fff" stop-opacity=".31"/><stop offset="1" stop-color="#fff" stop-opacity="0"/></linearGradient><linearGradient id="c" x1="233.5" y1="-56.5" x2="11.5" y2="222.5" gradientUnits="userSpaceOnUse"><stop offset=".1" stop-color="#fff" stop-opacity="0"/><stop offset=".458" stop-color="#fff" stop-opacity=".31"/><stop offset="1" stop-color="#fff" stop-opacity="0"/></linearGradient><linearGradient id="d" x1="233.5" y1="-56.5" x2="11.5" y2="222.5" gradientUnits="userSpaceOnUse"><stop offset=".1" stop-color="#fff" stop-opacity="0"/><stop offset=".458" stop-color="#fff" stop-opacity=".31"/><stop offset="1" stop-color="#fff" stop-opacity="0"/></linearGradient><linearGradient id="e" x1="233.5" y1="-56.5" x2="11.5" y2="222.5" gradientUnits="userSpaceOnUse"><stop offset=".1" stop-color="#fff" stop-opacity="0"/><stop offset=".458" stop-color="#fff" stop-opacity=".31"/><stop offset="1" stop-color="#fff" stop-opacity="0"/></linearGradient><linearGradient id="f" x1="233.5" y1="-56.5" x2="11.5" y2="222.5" gradientUnits="userSpaceOnUse"><stop offset=".1" stop-color="#fff" stop-opacity="0"/><stop offset=".458" stop-color="#fff" stop-opacity=".31"/><stop offset="1" stop-color="#fff" stop-opacity="0"/></linearGradient><linearGradient id="g" x1="233.5" y1="-56.5" x2="11.5" y2="222.5" gradientUnits="userSpaceOnUse"><stop offset=".1" stop-color="#fff" stop-opacity="0"/><stop offset=".458" stop-color="#fff" stop-opacity=".31"/><stop offset="1" stop-color="#fff" stop-opacity="0"/></linearGradient></defs></svg>