<svg width="24" height="24" viewBox="0 0 24 24" fill="none" xmlns="http://www.w3.org/2000/svg">
<path d="M15.3955 11.9969L15.2955 11.9973C15.2972 12.405 15.2179 12.8089 15.0623 13.1857C14.9067 13.5625 14.6778 13.9047 14.389 14.1924C14.1001 14.4801 13.757 14.7076 13.3796 14.8616C13.0022 15.0157 12.5979 15.0933 12.1903 15.09C11.5846 15.0837 10.9943 14.8986 10.4935 14.558C9.99268 14.2173 9.60365 13.7363 9.37532 13.1753C9.14698 12.6142 9.0895 11.9982 9.21011 11.4046C9.33072 10.8111 9.62403 10.2663 10.0532 9.83891C10.4824 9.41148 11.0283 9.12039 11.6224 9.0022C12.2165 8.88402 12.8322 8.94401 13.3923 9.17463C13.9524 9.40526 14.4319 9.79624 14.7705 10.2985C15.1091 10.8007 15.2918 11.3918 15.2955 11.9975L15.3955 11.9969ZM15.3955 11.9969C15.3973 12.4178 15.3154 12.8349 15.1548 13.2239C14.9941 13.613 14.7578 13.9662 14.4595 14.2633C14.1613 14.5603 13.8071 14.7951 13.4174 14.9542C13.0277 15.1133 12.6103 15.1934 12.1894 15.19C11.564 15.1835 10.9544 14.9924 10.4373 14.6407C9.92014 14.289 9.51846 13.7922 9.28269 13.213C9.04693 12.6337 8.98758 11.9976 9.11211 11.3847C9.23665 10.7718 9.53951 10.2094 9.98265 9.76805C10.4258 9.32671 10.9895 9.02615 11.6029 8.90412C12.2163 8.78209 12.8521 8.84403 13.4304 9.08216C14.0087 9.32029 14.5038 9.724 14.8534 10.2426C15.203 10.7611 15.3916 11.3715 15.3955 11.9969ZM1.41409 11.9457L1.385 11.9946L1.41207 12.0445L1.58182 12.3579C1.58183 12.3579 1.58184 12.358 1.58185 12.358C3.79782 16.4545 7.68863 18.9402 12 18.9402C16.3109 18.9402 20.2086 16.4876 22.4183 12.3577C22.4183 12.3576 22.4184 12.3576 22.4184 12.3575L22.5879 12.0445L22.614 11.9964L22.5875 11.9485L22.4182 11.6424C22.4181 11.6423 22.418 11.6421 22.4179 11.6419C20.2019 7.54566 16.3112 5.06016 12 5.06016C7.68942 5.06016 3.79242 7.54497 1.59577 11.6408L1.41409 11.9457ZM12 17.4016C8.38025 17.4016 5.05073 15.3928 3.10392 11.9969C5.05073 8.60104 8.38025 6.59225 12 6.59225C15.6189 6.59225 18.91 8.60672 20.8891 11.997C18.91 15.3934 15.6125 17.4016 12 17.4016ZM12.1886 7.43699C11.2835 7.4436 10.4006 7.71829 9.65151 8.22637C8.9024 8.73446 8.32066 9.45314 7.97976 10.2917C7.63887 11.1302 7.55411 12.0509 7.73619 12.9376C7.91827 13.8242 8.35902 14.637 9.00278 15.2733C9.64654 15.9096 10.4644 16.3409 11.3532 16.5126C12.2419 16.6844 13.1615 16.5889 13.996 16.2383C14.8305 15.8876 15.5424 15.2976 16.0417 14.5426C16.541 13.7876 16.8054 12.9016 16.8015 11.9964C16.7989 11.3939 16.6774 10.7978 16.444 10.2424C16.2106 9.68689 15.8698 9.18293 15.4413 8.75937C15.0128 8.33581 14.5049 8.00098 13.9468 7.77406C13.3886 7.54714 12.7911 7.4326 12.1886 7.43699Z" fill="black" stroke="black" stroke-width="0.2"/>
</svg>