<svg width="48" height="48" viewBox="0 0 48 48" fill="none" xmlns="http://www.w3.org/2000/svg">
<circle cx="24" cy="24" r="24" fill="#4E6297"/>
<path d="M34.7999 16.5816C34.7999 14.7847 33.2144 13.1992 31.4175 13.1992H17.7823C15.9854 13.1992 14.3999 14.7847 14.3999 16.5816V30.2168C14.3999 32.0137 15.9854 33.5992 17.7823 33.5992H24.6527V25.8832H22.116V22.5008H24.6527V21.1267C24.6527 18.8013 26.3439 16.793 28.4579 16.793H31.2061V20.1754H28.4579C28.1408 20.1754 27.8237 20.4925 27.8237 21.1267V22.5008H31.2061V25.8832H27.8237V33.5992H31.4175C33.2144 33.5992 34.7999 32.0137 34.7999 30.2168V16.5816Z" fill="white"/>
</svg>