<svg width="48" height="48" viewBox="0 0 48 48" fill="none" xmlns="http://www.w3.org/2000/svg">
<circle cx="24" cy="24" r="24" fill="#C5331E"/>
<path d="M24.4099 22.1292V26.8792H30.87C29.92 29.4442 27.45 31.1542 24.6 31.1542C20.895 31.1542 17.95 28.2092 17.95 24.5042C17.95 20.7992 20.895 17.8542 24.6 17.8542C26.025 17.8542 27.355 18.3292 28.495 19.0892L28.875 19.3742L31.725 15.6692L31.345 15.3842C29.35 13.9592 27.07 13.1992 24.6 13.1992C18.33 13.1992 13.2 18.3292 13.2 24.5992C13.2 30.8692 18.33 35.9992 24.6 35.9992C30.87 35.9992 36 30.8692 36 24.5992V22.2242H24.4099V22.1292Z" fill="white"/>
</svg>